<?xml version="1.0" encoding="UTF-8" standalone="no"?>
<svg
   xmlns:dc="http://purl.org/dc/elements/1.1/"
   xmlns:cc="http://creativecommons.org/ns#"
   xmlns:rdf="http://www.w3.org/1999/02/22-rdf-syntax-ns#"
   xmlns:svg="http://www.w3.org/2000/svg"
   xmlns="http://www.w3.org/2000/svg"
   xmlns:sodipodi="http://sodipodi.sourceforge.net/DTD/sodipodi-0.dtd"
   xmlns:inkscape="http://www.inkscape.org/namespaces/inkscape"
   id="Capa_1"
   version="1.1"
   viewBox="0 0 430.20031 372.78427"
   xml:space="preserve"
   sodipodi:docname="vimeo.svg"
   inkscape:version="0.92.1 unknown"
   width="430.20032"
   height="372.78427"><metadata
     id="metadata12"><rdf:RDF><cc:Work
         rdf:about=""><dc:format>image/svg+xml</dc:format><dc:type
           rdf:resource="http://purl.org/dc/dcmitype/StillImage" /><dc:title></dc:title></cc:Work></rdf:RDF></metadata><defs
     id="defs10" /><sodipodi:namedview
     pagecolor="#ffffff"
     bordercolor="#666666"
     borderopacity="1"
     objecttolerance="10"
     gridtolerance="10"
     guidetolerance="10"
     inkscape:pageopacity="0"
     inkscape:pageshadow="2"
     inkscape:window-width="797"
     inkscape:window-height="480"
     id="namedview8"
     showgrid="false"
     inkscape:zoom="0.54870959"
     inkscape:cx="-108.43624"
     inkscape:cy="186.44999"
     inkscape:window-x="0"
     inkscape:window-y="0"
     inkscape:window-maximized="0"
     inkscape:current-layer="Capa_1"
     fit-margin-top="0"
     fit-margin-left="0"
     fit-margin-right="0"
     fit-margin-bottom="0" /><g
     id="g5"
     style="fill:#ffffff"
     transform="translate(0,-28.715728)"><g
       id="g3"
       style="fill:#ffffff"><path
         d="m 367.2,28.8 c -59.8,-2 -100.3,31.6 -121.4,100.7 10.9,-4.5 21.5,-6.8 31.9,-6.8 21.8,0 31.5,12.2 28.9,36.8 -1.3,14.9 -10.9,36.5 -28.9,64.9 -18,28.4 -31.5,42.6 -40.5,42.6 -11.6,0 -22.2,-22 -31.9,-65.8 -3.2,-12.9 -9,-45.8 -17.3,-98.8 -7.8,-49 -28.3,-72 -61.7,-68.7 C 112.2,34.9 91,47.8 62.7,72.3 42.1,91 21.2,109.8 0,128.5 l 20.2,26.1 C 39.5,141 50.8,134.3 54,134.3 c 14.8,0 28.6,23.2 41.5,69.7 11.5,42.6 23.2,85.2 34.7,127.8 17.3,46.5 38.5,69.7 63.6,69.7 40.5,0 90,-38.1 148.5,-114.2 C 398.8,214.4 428,156.9 430,115 432.5,58.8 411.6,30 367.2,28.8 Z"
         id="Vimeo"
         style="fill:#ffffff"
         inkscape:connector-curvature="0" /></g></g></svg>