<?xml version="1.0" encoding="UTF-8" standalone="no"?>
<svg
   xmlns:dc="http://purl.org/dc/elements/1.1/"
   xmlns:cc="http://creativecommons.org/ns#"
   xmlns:rdf="http://www.w3.org/1999/02/22-rdf-syntax-ns#"
   xmlns:svg="http://www.w3.org/2000/svg"
   xmlns="http://www.w3.org/2000/svg"
   xmlns:sodipodi="http://sodipodi.sourceforge.net/DTD/sodipodi-0.dtd"
   xmlns:inkscape="http://www.inkscape.org/namespaces/inkscape"
   enable-background="new 0 0 30 30"
   height="21.0135"
   id="YouTube"
   version="1.1"
   viewBox="0 0 30 21.0135"
   width="30"
   xml:space="preserve"
   sodipodi:docname="youtube.svg"
   inkscape:version="0.92.1 unknown"><metadata
     id="metadata12"><rdf:RDF><cc:Work
         rdf:about=""><dc:format>image/svg+xml</dc:format><dc:type
           rdf:resource="http://purl.org/dc/dcmitype/StillImage" /><dc:title></dc:title></cc:Work></rdf:RDF></metadata><defs
     id="defs10" /><sodipodi:namedview
     pagecolor="#ffffff"
     bordercolor="#666666"
     borderopacity="1"
     objecttolerance="10"
     gridtolerance="10"
     guidetolerance="10"
     inkscape:pageopacity="0"
     inkscape:pageshadow="2"
     inkscape:window-width="797"
     inkscape:window-height="480"
     id="namedview8"
     showgrid="false"
     inkscape:zoom="7.8666667"
     inkscape:cx="-7.5635593"
     inkscape:cy="9.9994996"
     inkscape:window-x="0"
     inkscape:window-y="0"
     inkscape:window-maximized="0"
     inkscape:current-layer="YouTube"
     fit-margin-top="0"
     fit-margin-left="0"
     fit-margin-right="0"
     fit-margin-bottom="0" /><g
     id="_x5B____x3E___x5D_"
     style="fill:#ffffff"
     transform="translate(0,-3.986)"><g
       id="g4"
       style="fill:#ffffff"><path
         d="m 29.699,8.539 c 0,0 -0.293,-2.067 -1.191,-2.979 C 27.367,4.366 26.088,4.36 25.502,4.289 21.303,3.986 15,3.986 15,3.986 c 0,0 -6.304,0 -10.502,0.304 C 3.912,4.36 2.633,4.366 1.492,5.561 0.592,6.472 0.3,8.539 0.3,8.539 c 0,0 -0.3,2.02 -0.3,4.447 v 3.001 c 0,2.427 0.3,4.539 0.3,4.539 0,0 0.292,2.066 1.192,2.977 1.141,1.195 2.64,1.158 3.308,1.283 2.4,0.23 10.2,0.201 10.2,0.201 0,0 6.303,0.09 10.502,-0.213 0.586,-0.07 1.865,-0.076 3.006,-1.271 0.898,-0.91 1.191,-2.977 1.191,-2.977 0,0 0.301,-2.111 0.301,-4.538 V 12.987 C 30,10.559 29.699,8.539 29.699,8.539 Z M 11,18.493 v -8 l 8,4 z"
         id="path2"
         style="fill:#ffffff"
         inkscape:connector-curvature="0" /></g></g></svg>